<svg xmlns="http://www.w3.org/2000/svg" width="138.383" height="153.739" viewBox="0 0 138.383 153.739">
  <g id="_150_Horas" data-name="150 Horas" transform="translate(-925 -1723.828)">
    <path id="Icon_feather-hexagon" data-name="Icon feather-hexagon" d="M139.883,108.285V48.115A15.042,15.042,0,0,0,132.362,35.1L79.713,5.018a15.043,15.043,0,0,0-15.043,0L12.021,35.1A15.043,15.043,0,0,0,4.5,48.115v60.17A15.043,15.043,0,0,0,12.021,121.3L64.67,151.382a15.042,15.042,0,0,0,15.043,0L132.362,121.3a15.043,15.043,0,0,0,7.521-13.012Z" transform="translate(922 1722.497)" fill="none" stroke="#c3b48b" stroke-linecap="round" stroke-linejoin="round" stroke-width="3"/>
    <path id="Icon_feather-hexagon-2" data-name="Icon feather-hexagon" d="M120.712,93.377V41.727a12.912,12.912,0,0,0-6.456-11.169L69.062,4.733a12.912,12.912,0,0,0-12.912,0L10.956,30.558A12.912,12.912,0,0,0,4.5,41.727v51.65a12.912,12.912,0,0,0,6.456,11.169L56.15,130.371a12.912,12.912,0,0,0,12.912,0l45.193-25.825a12.912,12.912,0,0,0,6.456-11.169Z" transform="translate(931 1732.497)" fill="none" stroke="#c3b48b" stroke-linecap="round" stroke-linejoin="round" stroke-width="1" opacity="0.2"/>
    <text id="_150" data-name="150" transform="translate(994 1804)" fill="#c3b48b" font-size="50" font-family="Montserrat-Bold, Montserrat" font-weight="700" letter-spacing="-0.05em"><tspan x="-39.15" y="0">150</tspan></text>
    <text id="Horas" transform="translate(994 1830)" fill="#c3b48b" font-size="16" font-family="Montserrat-Bold, Montserrat" font-weight="700"><tspan x="-30.328" y="0">HORAS</tspan></text>
  </g>
</svg>
