<svg xmlns="http://www.w3.org/2000/svg" width="24" height="24" viewBox="0 0 24 24">
  <path id="Icon_awesome-expand-arrows-alt" data-name="Icon awesome-expand-arrows-alt" d="M24,18.964v6a1.282,1.282,0,0,1-1.286,1.286h-6a1.288,1.288,0,0,1-.911-2.2l1.939-1.939L12,16.371,6.256,22.12,8.2,24.054a1.288,1.288,0,0,1-.911,2.2h-6A1.282,1.282,0,0,1,0,24.964v-6a1.287,1.287,0,0,1,2.2-.911l1.939,1.939L9.882,14.25,4.135,8.5,2.2,10.446A1.287,1.287,0,0,1,0,9.536v-6A1.282,1.282,0,0,1,1.286,2.25h6a1.288,1.288,0,0,1,.911,2.2L6.257,6.386,12,12.129,17.744,6.38,15.8,4.446a1.288,1.288,0,0,1,.911-2.2h6A1.282,1.282,0,0,1,24,3.536v6a1.287,1.287,0,0,1-2.2.911L19.865,8.507,14.118,14.25,19.865,20,21.8,18.059A1.285,1.285,0,0,1,24,18.964Z" transform="translate(0 -2.25)" fill="#c3b48b"/>
</svg>
