<svg xmlns="http://www.w3.org/2000/svg" width="24" height="24" viewBox="0 0 24 24">
  <path id="Icon_awesome-life-ring" data-name="Icon awesome-life-ring" d="M12.563.563a12,12,0,1,0,12,12A12,12,0,0,0,12.563.563Zm8.4,5.785L17.9,9.415a6.263,6.263,0,0,0-2.19-2.19l3.068-3.068a10.568,10.568,0,0,1,2.19,2.19Zm-8.4,10.86a4.645,4.645,0,1,1,4.645-4.645A4.645,4.645,0,0,1,12.563,17.208ZM6.348,4.158,9.415,7.226a6.263,6.263,0,0,0-2.19,2.19L4.158,6.348a10.566,10.566,0,0,1,2.19-2.19Zm-2.19,14.62L7.226,15.71a6.263,6.263,0,0,0,2.19,2.19L6.348,20.967a10.568,10.568,0,0,1-2.19-2.19Zm14.62,2.19L15.71,17.9a6.263,6.263,0,0,0,2.19-2.19l3.068,3.068A10.568,10.568,0,0,1,18.777,20.967Z" transform="translate(-0.563 -0.563)" fill="#c3b48b"/>
</svg>
