<svg width="13" height="12" viewBox="0 0 13 12" fill="none" xmlns="http://www.w3.org/2000/svg">
<path d="M12.9878 0.193587V0.0507812H11.0608L7.5249 4.29574V4.49426H9.20555C10.0653 4.49426 10.5572 4.90864 10.7161 5.52939C10.7512 5.6722 10.7686 5.82574 10.7686 5.98918C10.7686 6.8683 10.2671 7.50597 9.19977 7.50597H7.51953V7.70491L8.63391 9.04299L11.055 11.9494H12.982V11.8066C12.7592 11.7072 12.4009 11.4979 11.9312 10.949L9.64717 8.22165C9.71321 8.21711 9.778 8.21174 9.84157 8.20514C11.0736 8.14694 11.8359 7.56004 12.1141 6.74159C12.1974 6.51335 12.2395 6.26818 12.2395 6.01105C12.2395 4.81702 11.4302 3.86732 9.84115 3.79509C9.77965 3.78849 9.71692 3.78271 9.65295 3.77858L11.937 1.05124C12.4063 0.501485 12.7649 0.293055 12.9878 0.193587Z" fill="#C3B48B"/>
<path d="M5.46912 7.5068L4.01011 7.50597H3.78847C2.72156 7.50597 2.22009 6.86789 2.22009 5.98876C2.22009 5.82491 2.23742 5.67055 2.27251 5.52692L2.28695 5.47161C2.42604 5.00275 2.76407 4.661 3.31754 4.54049C3.37574 4.5281 3.43559 4.5182 3.49791 4.51077C3.49997 4.51077 3.50162 4.51077 3.50369 4.50953C3.52886 4.50664 3.55404 4.50499 3.57963 4.5021C3.64484 4.49715 3.71335 4.49426 3.78311 4.49426H4.01011H5.46334V4.29532L5.02337 3.76661L4.17025 2.74304L1.92705 0.0507812H0V0.193587C0.223701 0.293055 0.58154 0.501485 1.05164 1.05124L3.3357 3.77941C3.26719 3.78312 3.20115 3.7889 3.13594 3.7955C1.55394 3.87103 0.74911 4.81949 0.74911 6.01105C0.74911 6.27066 0.791621 6.51871 0.877057 6.74943C1.15565 7.56169 1.91384 8.14447 3.13759 8.20431C3.20363 8.21133 3.27173 8.21711 3.34148 8.22082L1.05742 10.9486C0.586906 11.4979 0.229067 11.7072 0.00577826 11.8066V11.9494H1.93365L4.71918 8.60508L5.02956 8.23238L5.46912 7.70449V7.5068Z" fill="#C3B48B"/>
<path d="M7.75228 11.7967C7.72875 11.7905 7.70564 11.7839 7.68335 11.7778C7.32427 11.6263 7.14143 11.4154 7.14143 10.8165V8.23238V7.23274V6.74613C7.16661 6.33876 7.38577 6.19183 7.75228 6.087V5.97556V5.87196C7.38577 5.77456 7.16661 5.67014 7.14143 5.32096V3.76661H7.13896V1.0595C7.16537 0.519233 7.3705 0.337218 7.74939 0.193587V0.163045L7.75228 0.162219V0.0507812H7.74939H5.24369H5.24121V0.193587C5.65477 0.347949 5.85371 0.545648 5.85371 1.18332V3.76661V4.76914V5.32468C5.8244 5.66436 5.58626 5.77497 5.24369 5.87196V5.97556V6.087C5.62175 6.19802 5.82729 6.32349 5.85371 6.7321V8.23238H5.85701V10.9321C5.83555 11.4294 5.66839 11.6255 5.34728 11.7658C5.31385 11.7761 5.2796 11.7868 5.24369 11.7967V11.9003H5.24658V11.9494H7.75517V11.8066L7.75228 11.8054V11.7967Z" fill="#C3B48B"/>
</svg>
