<svg width="22" height="22" viewBox="0 0 22 22" fill="none" xmlns="http://www.w3.org/2000/svg">
<path d="M16.0398 13.1835C15.7639 13.046 14.4201 12.3887 14.1698 12.298C13.9196 12.2054 13.7363 12.1605 13.5529 12.4355C13.3723 12.7059 12.8462 13.3192 12.6876 13.5007C12.5272 13.6794 12.3677 13.6932 12.0954 13.5694C11.8204 13.4319 10.9377 13.1432 9.89267 12.2082C9.07867 11.4794 8.53233 10.5857 8.371 10.3107C8.2115 10.0357 8.35358 9.88442 8.49017 9.74692C8.61483 9.62317 8.76608 9.43067 8.90358 9.2675C9.03742 9.10158 9.08142 8.99158 9.17583 8.81283C9.2675 8.62033 9.22075 8.46908 9.15292 8.3325C9.08417 8.195 8.53692 6.8475 8.30775 6.31033C8.08775 5.775 7.86133 5.84283 7.69175 5.84283C7.53408 5.82908 7.35167 5.82908 7.16833 5.82908C6.985 5.82908 6.68892 5.89692 6.43775 6.15817C6.1875 6.43317 5.47983 7.09317 5.47983 8.42692C5.47983 9.76067 6.46067 11.0532 6.59725 11.2457C6.73383 11.4244 8.52683 14.1744 11.2722 15.3569C11.9267 15.6319 12.4364 15.7969 12.8342 15.9335C13.4887 16.1416 14.0855 16.1123 14.5576 16.0444C15.0837 15.961 16.1773 15.3835 16.4056 14.7373C16.6393 14.091 16.6393 13.5548 16.5706 13.431C16.5028 13.3073 16.3231 13.2385 16.0481 13.1147M11.0559 19.9375H11.0412C9.41875 19.9375 7.81092 19.4975 6.4075 18.6725L6.0775 18.4763L2.64 19.3701L3.56125 16.0288L3.34217 15.6851C2.43467 14.2404 1.9525 12.5767 1.9525 10.8634C1.9525 5.87217 6.03625 1.80217 11.066 1.80217C13.4988 1.80217 15.7823 2.75092 17.5019 4.46967C19.2207 6.17375 20.1685 8.45717 20.1685 10.8772C20.1648 15.8675 16.0802 19.9384 11.0614 19.9384M18.81 3.16158C16.72 1.14125 13.97 0 11.0412 0C5.00775 0 0.0953333 4.8895 0.0925833 10.9019C0.0925833 12.8233 0.595833 14.6969 1.55467 16.3515L0 22L5.80708 20.4857C7.40758 21.3501 9.20792 21.8093 11.0412 21.8121H11.0468C17.083 21.8121 21.9972 16.9208 22 10.9074C22 7.99608 20.8633 5.25617 18.7962 3.19733" fill="white"/>
</svg>
