<svg id="Group_161" data-name="Group 161" xmlns="http://www.w3.org/2000/svg" xmlns:xlink="http://www.w3.org/1999/xlink" width="156.178" height="160.686" viewBox="0 0 156.178 160.686">
  <defs>
    <clipPath id="clip-path">
      <rect id="Rectangle_225" data-name="Rectangle 225" width="156.178" height="160.686" fill="#c3b48b"/>
    </clipPath>
  </defs>
  <g id="Group_160" data-name="Group 160" clip-path="url(#clip-path)">
    <path id="Path_6666" data-name="Path 6666" d="M5.559,65.9a7.994,7.994,0,0,1,4.177-2,9.5,9.5,0,0,1,4.908.608,9.363,9.363,0,0,1,4.038,2.811,8.053,8.053,0,0,1,1.755,4.265,10.856,10.856,0,0,1-.753,5.1l-2.268,5.931L.448,76.132,2.716,70.2a10.861,10.861,0,0,1,2.843-4.3m11.307,5.117a5.946,5.946,0,0,0-3.551-3.029,6.084,6.084,0,0,0-4.7-.126,5.9,5.9,0,0,0-3.075,3.561l-.919,2.407,11.207,4.284.92-2.407a5.983,5.983,0,0,0,.121-4.69" transform="translate(-0.125 -17.842)" fill="#c3b48b"/>
    <path id="Path_6667" data-name="Path 6667" d="M41.9,41.629a8.929,8.929,0,0,1-4.731-.274,9.8,9.8,0,0,1-6.3-7.213,8.943,8.943,0,0,1,.364-4.725,9.789,9.789,0,0,1,7.067-6.172,8.866,8.866,0,0,1,4.711.29,9.893,9.893,0,0,1,6.3,7.213,8.84,8.84,0,0,1-.356,4.717A9.764,9.764,0,0,1,41.9,41.629m3.863-7.09a5.081,5.081,0,0,0,.074-2.882,6.949,6.949,0,0,0-1.577-2.873,6.879,6.879,0,0,0-2.626-1.939,5.018,5.018,0,0,0-2.849-.293A5.624,5.624,0,0,0,36.127,27.9a5.7,5.7,0,0,0-1.706,2.459,4.991,4.991,0,0,0-.1,2.871,7.618,7.618,0,0,0,4.2,4.811,5.052,5.052,0,0,0,2.875.3A5.613,5.613,0,0,0,44.071,37a5.544,5.544,0,0,0,1.688-2.459" transform="translate(-8.586 -6.447)" fill="#c3b48b"/>
    <path id="Path_6668" data-name="Path 6668" d="M77.458,2.418l2.464,10.97a3.856,3.856,0,0,0,1.559,2.544,3.63,3.63,0,0,0,2.855.359,3.668,3.668,0,0,0,2.453-1.551,3.856,3.856,0,0,0,.321-2.966L84.644.8,88.225,0l2.459,10.944a7.25,7.25,0,0,1-.12,4.042,6.354,6.354,0,0,1-2.088,2.936,8.511,8.511,0,0,1-3.467,1.606,8.284,8.284,0,0,1-3.77.02,6.14,6.14,0,0,1-3.079-1.776,7.467,7.467,0,0,1-1.8-3.611L73.9,3.216Z" transform="translate(-20.668)" fill="#c3b48b"/>
    <path id="Path_6669" data-name="Path 6669" d="M137.457,3.375l-.668,2.864-4.714-1.1-3.458,14.828-3.548-.828,3.458-14.827-4.715-1.1.668-2.864Z" transform="translate(-34.625 -0.098)" fill="#c3b48b"/>
    <path id="Path_6670" data-name="Path 6670" d="M159.526,34.763a8.93,8.93,0,0,1-.455-4.717,9.8,9.8,0,0,1,6.162-7.332,8.943,8.943,0,0,1,4.725-.364,9.79,9.79,0,0,1,7.182,6.036,8.877,8.877,0,0,1,.436,4.7,9.893,9.893,0,0,1-6.162,7.332,8.844,8.844,0,0,1-4.715.372,9.762,9.762,0,0,1-7.173-6.029m7.6,2.731a5.087,5.087,0,0,0,2.859-.368,6.961,6.961,0,0,0,2.6-2,6.882,6.882,0,0,0,1.513-2.894,5.013,5.013,0,0,0-.146-2.859,5.632,5.632,0,0,0-1.743-2.417,5.709,5.709,0,0,0-2.69-1.31,4.99,4.99,0,0,0-2.853.34,6.881,6.881,0,0,0-2.59,1.989,6.956,6.956,0,0,0-1.521,2.9,5.048,5.048,0,0,0,.14,2.889,5.619,5.619,0,0,0,1.744,2.435,5.545,5.545,0,0,0,2.689,1.291" transform="translate(-44.449 -6.205)" fill="#c3b48b"/>
    <path id="Path_6671" data-name="Path 6671" d="M188.209,75.507l5-6.417-.659-1.587-6.538,2.717-1.4-3.364,16.775-6.972,2.617,6.3a7.959,7.959,0,0,1,.694,3.6,5.183,5.183,0,0,1-1,2.824,5.644,5.644,0,0,1-5.715,2.051,5.352,5.352,0,0,1-3.027-2.1l-5.133,6.84Zm6.863-9.052,1.168,2.811a3.043,3.043,0,0,0,1.51,1.768,2.661,2.661,0,0,0,2.118-.091,2.543,2.543,0,0,0,1.511-1.418,3.12,3.12,0,0,0-.212-2.307L200,64.407Z" transform="translate(-51.629 -16.747)" fill="#c3b48b"/>
    <path id="Path_6672" data-name="Path 6672" d="M3.078,145.678l5.369-6.111-.564-1.622L1.2,140.271,0,136.83l17.158-5.969L19.4,137.3a7.956,7.956,0,0,1,.48,3.636,5.184,5.184,0,0,1-1.162,2.76,5.478,5.478,0,0,1-2.423,1.629,5.407,5.407,0,0,1-3.4.081,5.347,5.347,0,0,1-2.9-2.271L4.462,149.66Zm7.386-8.631,1,2.876a3.045,3.045,0,0,0,1.4,1.854,2.664,2.664,0,0,0,2.12.034,2.538,2.538,0,0,0,1.592-1.325,3.116,3.116,0,0,0-.075-2.316l-1-2.876Z" transform="translate(0 -36.597)" fill="#c3b48b"/>
    <rect id="Rectangle_223" data-name="Rectangle 223" width="18.166" height="3.643" transform="matrix(0.751, -0.66, 0.66, 0.751, 16.531, 131.716)" fill="#c3b48b"/>
    <path id="Path_6673" data-name="Path 6673" d="M68.3,195.632a4.267,4.267,0,0,0-.815-2.308,5.233,5.233,0,0,0-2.055-1.625,5.575,5.575,0,0,0-2.9-.555,5.032,5.032,0,0,0-2.651,1.057,7.342,7.342,0,0,0-2.662,5.709,5.063,5.063,0,0,0,.919,2.73,5.878,5.878,0,0,0,2.377,1.919,5.143,5.143,0,0,0,3.556.445,5.276,5.276,0,0,0,2.888-2.052L61.3,198.3l1.182-2.522,8.908,4.176-1.348,2.875a8.543,8.543,0,0,1-2.905,2.518,8.8,8.8,0,0,1-3.892,1.036A9.065,9.065,0,0,1,59,205.472a9.567,9.567,0,0,1-3.8-3.088,8.615,8.615,0,0,1-1.619-4.395,10.1,10.1,0,0,1,4.071-8.684,8.593,8.593,0,0,1,4.419-1.579,10.144,10.144,0,0,1,8.975,4.553,7.644,7.644,0,0,1,1.044,5.132Z" transform="translate(-14.976 -52.493)" fill="#c3b48b"/>
    <path id="Path_6674" data-name="Path 6674" d="M114.127,211.733l-7.226.363-1.021,3.517-3.821.192,5.611-18.5,4.236-.213,7.438,17.841-3.847.194Zm-1.135-2.862-3.007-7.458-2.244,7.722Z" transform="translate(-28.542 -55.12)" fill="#c3b48b"/>
    <path id="Path_6675" data-name="Path 6675" d="M153.755,182.1l1.429,2.57-4.231,2.353,7.4,13.308-3.185,1.77-7.4-13.307-4.231,2.352-1.429-2.57Z" transform="translate(-39.742 -50.925)" fill="#c3b48b"/>
    <path id="Path_6676" data-name="Path 6676" d="M180.29,154.837l2.367,1.745-2.874,3.9,12.252,9.038-2.162,2.933-12.253-9.039-2.873,3.9-2.367-1.746Z" transform="translate(-48.208 -43.302)" fill="#c3b48b"/>
    <rect id="Rectangle_224" data-name="Rectangle 224" width="3.644" height="18.166" transform="translate(137.684 97.741) rotate(-75.17)" fill="#c3b48b"/>
    <path id="Path_6677" data-name="Path 6677" d="M111.512,89.8v2.963h-.126a4.436,4.436,0,0,0-2.309.547,3.213,3.213,0,0,0-1.182,1.4,9.919,9.919,0,0,0-.552,1.506h-.63V89.8Z" transform="translate(-29.843 -25.114)" fill="#c3b48b"/>
    <path id="Path_6678" data-name="Path 6678" d="M109.769,111h2.6v3.066l-2.6-2.258Z" transform="translate(-30.698 -31.043)" fill="#c3b48b"/>
    <path id="Path_6679" data-name="Path 6679" d="M142.5,122.632v.583H131.636L116.657,110.2v-5.123h4.512c6.021,0,8.851-2.6,8.851-6.2s-2.829-6.108-8.851-6.108h-4.512V89.8h5.009c11.136,0,16.618,4,16.618,9.071s-4.942,9.076-14.644,9.076l12.937,11.18a17.177,17.177,0,0,0,5.927,3.5" transform="translate(-32.624 -25.114)" fill="#c3b48b"/>
    <path id="Path_6680" data-name="Path 6680" d="M85.01,89.8h5.009v2.963H85.5c-6.018,0-8.847,2.518-8.847,6.108s2.829,6.2,8.847,6.2h4.516V110.2l-14.979,13.02H64.171v-.583a17.164,17.164,0,0,0,5.927-3.5l12.934-11.18c-9.7,0-14.64-4-14.64-9.076S73.869,89.8,85.01,89.8" transform="translate(-17.946 -25.114)" fill="#c3b48b"/>
    <path id="Path_6681" data-name="Path 6681" d="M103.336,111h2.6v.808l-2.6,2.258Z" transform="translate(-28.899 -31.043)" fill="#c3b48b"/>
    <path id="Path_6682" data-name="Path 6682" d="M108.132,89.8v6.42h-.627a9.534,9.534,0,0,0-.555-1.506,3.213,3.213,0,0,0-1.182-1.4,4.4,4.4,0,0,0-2.306-.547h-.126V89.8Z" transform="translate(-28.899 -25.114)" fill="#c3b48b"/>
    <path id="Path_6683" data-name="Path 6683" d="M109.224,80.765c0-2.652,1.257-3.551,3.456-4.177v-.63H98.533v.63c2.294.674,3.46,1.439,3.46,4.177v41.689c0,2.246-1.391,2.92-3.46,3.5v.583H112.68v-.583c-2.2-.583-3.456-1.209-3.456-3.5Z" transform="translate(-27.556 -21.242)" fill="#c3b48b"/>
  </g>
</svg>
