<svg xmlns="http://www.w3.org/2000/svg" xmlns:xlink="http://www.w3.org/1999/xlink" width="190" height="24" viewBox="0 0 190 24">
  <defs>
    <clipPath id="clip-path">
      <rect id="Rectangle_222" data-name="Rectangle 222" width="190" height="24" transform="translate(0 0)" fill="#c3b48b"/>
    </clipPath>
  </defs>
  <g id="Group_159" data-name="Group 159" transform="translate(0 0)">
    <g id="Group_158" data-name="Group 158" transform="translate(0 0)" clip-path="url(#clip-path)">
      <path id="Path_6659" data-name="Path 6659" d="M16.952,13.48c6.621,0,9.993-2.783,9.993-6.318S23.206.845,15.6.845H0v.438c1.563.438,2.361,1,2.361,2.909v16.7c0,1.814-.8,2.377-2.361,2.815v.406H9.656v-.406c-1.594-.438-2.361-1-2.361-2.815V4.035c0-1.095.552-1.126,1.41-1.126h6.56c4.108,0,6.039,1.751,6.039,4.254s-1.931,4.316-6.039,4.316H8.8v.563L22.408,24.113h7.419v-.406a11.7,11.7,0,0,1-4.047-2.44Z" transform="translate(0 -0.282)" fill="#c3b48b"/>
      <path id="Path_6660" data-name="Path 6660" d="M52.5,1.283c1.563.469,2.361,1,2.361,2.909V21.267c0,1.564-.95,2.033-2.361,2.44v.406h9.656v-.406c-1.5-.406-2.361-.844-2.361-2.44V4.191c0-1.845.859-2.471,2.361-2.909V.845H52.5Z" transform="translate(-18.217 -0.282)" fill="#c3b48b"/>
      <path id="Path_6661" data-name="Path 6661" d="M286.27,1.283V.845h-9.656v.438c1.563.469,2.361,1,2.361,2.909V21.267c0,1.564-.95,2.033-2.361,2.44v.406h9.656v-.406c-1.5-.406-2.361-.844-2.361-2.44V4.191c0-1.845.859-2.471,2.361-2.909" transform="translate(-95.989 -0.282)" fill="#c3b48b"/>
      <path id="Path_6662" data-name="Path 6662" d="M97.361,17.389v3.5a18.465,18.465,0,0,1-7.05,1.438c-5.886,0-11.189-3.158-11.189-10.2,0-6.693,5.947-10.1,11.833-10.1,3.893,0,9.165,1,10.606,5.223h.429l.4-5.661h-.429a2.311,2.311,0,0,1-.552.219A33.674,33.674,0,0,0,90.923,0C78.876,0,73.511,6.005,73.511,12.166c0,7.6,7.112,12.229,16.769,12.229A27.747,27.747,0,0,0,102.3,21.58V17.389c0-1.845.92-2.44,2.422-2.877v-.406H97.361Z" transform="translate(-25.509 0)" fill="#c3b48b"/>
      <path id="Path_6663" data-name="Path 6663" d="M225.577.845l1.839,5.136,0,.024h.4a4.489,4.489,0,0,1,4.506-2.94h5.627V21.143c0,1.626-.919,2.158-2.421,2.564v.406h9.656v-.406c-1.441-.406-2.422-.938-2.422-2.564V3.065h5.628a4.49,4.49,0,0,1,4.506,2.94h.4l1.847-5.16Z" transform="translate(-78.278 -0.282)" fill="#c3b48b"/>
      <path id="Path_6664" data-name="Path 6664" d="M174.748.845l1.839,5.136,0,.024h.4a4.488,4.488,0,0,1,4.506-2.94h5.627V21.143c0,1.626-.919,2.158-2.421,2.564v.406h9.656v-.406c-1.441-.406-2.421-.938-2.421-2.564V3.065h5.627a4.489,4.489,0,0,1,4.506,2.94h.4L204.31.845Z" transform="translate(-60.64 -0.282)" fill="#c3b48b"/>
      <path id="Path_6665" data-name="Path 6665" d="M155.851,20.612,143.712.846h-7.479v.438a4.473,4.473,0,0,1,2.513,1.189l.092.156L128.476,19.392c-2.207,3.44-4.077,4.035-5.18,4.316v.406h9.778v-.406c-1.073-.313-2.483-.845-2.483-1.908a1.7,1.7,0,0,1,.276-.844l1.87-3.065h.01l1.527-2.5h0l6.407-10.477,5.676,9.475h-9.718v.563l2.142,1.939h9.077l2.356,3.88a1.521,1.521,0,0,1,.306.875c0,1.063-1.44,1.751-2.605,2.065v.406h11.863v-.406a6.508,6.508,0,0,1-3.924-3.1" transform="translate(-42.785 -0.282)" fill="#c3b48b"/>
    </g>
  </g>
</svg>
