<svg width="191" height="25" viewBox="0 0 191 25" fill="none" xmlns="http://www.w3.org/2000/svg">
<path d="M16.9522 13.1983C23.5734 13.1983 26.9454 10.4149 26.9454 6.88069C26.9454 3.34648 23.2058 0.563087 15.6031 0.563087H0V1.00078C1.56325 1.43848 2.36054 2.00142 2.36054 3.90943V20.6105C2.36054 22.4245 1.56325 22.9875 0 23.4252V23.8316H9.65635V23.4252C8.06241 22.9875 7.29581 22.4245 7.29581 20.6105V3.75287C7.29581 2.6583 7.84758 2.62699 8.70625 2.62699H15.2661C19.3741 2.62699 21.305 4.37843 21.305 6.88069C21.305 9.38295 19.3741 11.1964 15.2661 11.1964H8.79767V11.7593L22.4085 23.8316H29.8271V23.4252C28.969 23.144 27.5893 22.5498 25.7805 20.9856L16.9522 13.1983Z" fill="#231F20"/>
<path d="M34.2791 1.00078C35.8424 1.46979 36.6396 2.00142 36.6396 3.90943V20.9856C36.6396 22.5491 35.6896 23.0188 34.2791 23.4252V23.8316H43.9355V23.4252C42.4336 23.0188 41.5749 22.5811 41.5749 20.9856V3.90943C41.5749 2.06404 42.4336 1.43848 43.9355 1.00078V0.563087H34.2791V1.00078Z" fill="#231F20"/>
<path d="M190.281 1.00078V0.563087H180.625V1.00078C182.188 1.46979 182.985 2.00142 182.985 3.90943V20.9856C182.985 22.5498 182.035 23.0188 180.625 23.4252V23.8316H190.281V23.4252C188.779 23.0188 187.921 22.5811 187.921 20.9856V3.90943C187.921 2.06404 188.779 1.43848 190.281 1.00078Z" fill="#231F20"/>
<path d="M71.8512 17.3894V20.8923C69.7976 21.799 67.1308 22.3306 64.801 22.3306C58.9149 22.3306 53.6121 19.1721 53.6121 12.135C53.6121 5.44236 59.5588 2.0334 65.4448 2.0334C69.3379 2.0334 74.6101 3.03403 76.0512 7.25643H76.4803L76.8786 1.5957H76.4496C76.2654 1.68897 76.1427 1.75159 75.8978 1.81422C73.5986 1.06341 69.859 0.000144958 65.4135 0.000144958C53.3665 0.000144958 48.0016 6.0053 48.0016 12.1663C48.0016 19.7664 55.1139 24.3952 64.7703 24.3952C68.5099 24.3952 73.2924 23.4258 76.7865 21.5805V17.3894C76.7865 15.544 77.7066 14.9497 79.2084 14.5121V14.1057H71.8512V17.3894Z" fill="#231F20"/>
<path d="M147.298 0.563087L149.137 5.69951L149.135 5.7235H149.147H149.395H149.533C150.238 4.25385 151.281 2.78354 154.039 2.78354H159.667V20.861C159.667 22.4872 158.748 23.0188 157.246 23.4252V23.8316H166.902V23.4252C165.461 23.0188 164.48 22.4872 164.48 20.861V2.78354H170.108C172.866 2.78354 173.908 4.25385 174.614 5.7235H174.8H175.012H175.013L176.86 0.563087H147.298Z" fill="#231F20"/>
<path d="M114.108 0.563087L115.947 5.69951L115.944 5.7235H115.956H116.204H116.342C117.048 4.25385 118.09 2.78354 120.849 2.78354H126.476V20.861C126.476 22.4872 125.557 23.0188 124.055 23.4252V23.8316H133.711V23.4252C132.27 23.0188 131.289 22.4872 131.289 20.861V2.78354H136.917C139.676 2.78354 140.718 4.25385 141.423 5.7235H141.609H141.821L143.67 0.563087H114.108Z" fill="#231F20"/>
<path d="M113.066 20.3293L100.926 0.563755H93.4468V1.00145C94.0599 1.09539 95.4697 1.50177 95.9601 2.18996L96.0522 2.34585L85.6906 19.1095C83.4835 22.5498 81.614 23.144 80.5105 23.4258V23.8322H90.289V23.4258C89.2161 23.1127 87.8063 22.5811 87.8063 21.5178C87.8063 21.2674 87.8977 20.9862 88.0819 20.6738L89.952 17.6086H89.9618L91.4885 15.1063H91.4846L97.8917 4.62959L103.567 14.1043H93.8497V14.6673L95.9921 16.6059H105.069L107.425 20.4859C107.639 20.7983 107.731 21.0801 107.731 21.3613C107.731 22.4245 106.291 23.1127 105.126 23.4258V23.8322H116.99V23.4258C115.947 23.1127 114.384 22.4872 113.066 20.3293Z" fill="#231F20"/>
</svg>
