<svg width="220" height="224" viewBox="0 0 220 224" fill="none" xmlns="http://www.w3.org/2000/svg">
<path d="M144.16 79.4929V78.6927H133.363L113.556 102.473V103.587H122.971C127.787 103.587 130.543 105.909 131.435 109.385C131.63 110.184 131.727 111.047 131.727 111.961C131.727 116.885 128.917 120.459 122.939 120.459H113.524V121.572L119.768 129.071L133.333 145.354H144.129V144.554C142.88 143.996 140.872 142.823 138.242 139.748L125.446 124.468C125.816 124.444 126.178 124.412 126.534 124.376C133.438 124.05 137.707 120.762 139.265 116.176C139.731 114.898 139.968 113.524 139.968 112.085C139.968 105.395 135.433 100.075 126.532 99.6691C126.187 99.6324 125.837 99.6017 125.478 99.5778L138.273 84.299C140.903 81.2173 142.912 80.0502 144.16 79.4929Z" fill="#C3B48B"/>
<path d="M102.036 120.464V120.459H93.8621H92.6207C86.6436 120.459 83.8326 116.885 83.8326 111.96C83.8326 111.041 83.9307 110.177 84.1261 109.371L84.2084 109.063C84.9877 106.435 86.8816 104.522 89.9822 103.846C90.3074 103.776 90.6435 103.722 90.9926 103.679C91.0045 103.679 91.0124 103.679 91.0233 103.673C91.1641 103.657 91.3059 103.646 91.4507 103.63C91.8146 103.603 92.1983 103.587 92.59 103.587H93.8621H102.004V103.581V102.473L99.5378 99.5104L94.7585 93.7753L82.1925 78.6927H71.3955V79.492C72.6488 80.0492 74.6528 81.2173 77.2873 84.298L90.0843 99.5808C89.7006 99.6026 89.3288 99.6354 88.9649 99.673C80.1023 100.094 75.5928 105.408 75.5928 112.084C75.5928 113.539 75.8307 114.928 76.3086 116.22C77.8704 120.772 82.1182 124.038 88.9728 124.373C89.3446 124.41 89.7244 124.443 90.116 124.464L77.3181 139.747C74.6845 142.822 72.6796 143.995 71.4273 144.553V145.353H82.2272L97.8353 126.616L99.5735 124.529L102.036 121.572V120.464Z" fill="#C3B48B"/>
<path d="M114.825 144.498C114.691 144.462 114.563 144.428 114.437 144.392C112.426 143.544 111.404 142.362 111.404 139.006V124.529V118.929V116.202C111.544 113.921 112.771 113.097 114.825 112.51V111.885V111.305C112.771 110.761 111.544 110.176 111.404 108.218V99.5104H111.39V84.3436C111.537 81.3174 112.686 80.2981 114.809 79.4929V79.3214L114.825 79.3164V78.6927H114.809H100.771H100.755V79.4929C103.073 80.3576 104.19 81.4661 104.19 85.0387V99.5104V105.128V108.24C104.024 110.142 102.69 110.764 100.771 111.305V111.885V112.51C102.889 113.133 104.04 113.835 104.19 116.125V124.529H104.207V139.653C104.086 142.44 103.15 143.538 101.351 144.324C101.163 144.383 100.972 144.442 100.771 144.498V145.078H100.788V145.353H114.841V144.553L114.825 144.547V144.498Z" fill="#C3B48B"/>
<path d="M4.55785 91.1913C3.02888 89.5533 2.03038 87.6554 1.56336 85.4958C1.09634 83.3382 1.21731 81.1181 1.92627 78.8365C2.75521 76.1683 4.16619 74.0434 6.15822 72.4618C8.15025 70.8803 10.4804 70.0663 13.1457 70.0197L11.4333 75.5267C10.1234 75.7201 9.02877 76.2238 8.15025 77.0389C7.27173 77.8539 6.6302 78.9109 6.22565 80.2118C5.79333 81.603 5.73383 82.9416 6.04717 84.2266C6.3605 85.5117 7.01691 86.6411 8.01441 87.6138C9.0129 88.5865 10.3099 89.3212 11.9063 89.818C13.4799 90.3068 14.9592 90.4357 16.3444 90.2027C17.7297 89.9707 18.9165 89.4145 19.9031 88.532C20.8897 87.6515 21.5997 86.5151 22.031 85.124C22.4356 83.8241 22.501 82.5876 22.2283 81.4146C21.9547 80.2416 21.333 79.2044 20.3622 78.3021L22.0746 72.794C24.267 74.3518 25.7315 76.3378 26.4682 78.7562C27.2049 81.1736 27.1544 83.7279 26.3185 86.419C25.6095 88.6995 24.4514 90.5974 22.8431 92.1105C21.2338 93.6236 19.3409 94.6241 17.1645 95.1099C14.988 95.5958 12.7243 95.4738 10.3753 94.744C8.02631 94.0143 6.08683 92.8304 4.55785 91.1913Z" fill="#C3B48B"/>
<path d="M41.4509 51.8076L47.0472 45.7611L49.9663 48.4611L40.963 58.1902L22.6104 41.2059L26.0163 37.5242L41.4509 51.8076Z" fill="#C3B48B"/>
<path d="M58.6136 7.08575L52.9895 14.1863L51.3584 10.9954L56.7544 3.44873L58.6136 7.08575ZM59.7341 12.3469L71.1161 34.6123L66.6511 36.8948L55.2681 14.6295L59.7341 12.3469Z" fill="#C3B48B"/>
<path d="M112.65 25.9063L107.645 26.2415L95.1676 9.87787L96.3148 27L91.3095 27.3361L89.6357 2.34999L94.6411 2.01484L107.121 18.4132L105.972 1.25531L110.976 0.920166L112.65 25.9063Z" fill="#C3B48B"/>
<rect x="133.453" y="29.795" width="25.0061" height="5.01535" transform="rotate(-70.7805 133.453 29.795)" fill="#C3B48B"/>
<path d="M170.966 27.7607C173.104 27.0884 175.246 27.0071 177.395 27.5177C179.544 28.0274 181.494 29.0953 183.245 30.7185C185.294 32.6193 186.602 34.8096 187.169 37.2885C187.735 39.7684 187.464 42.2205 186.357 44.6458L182.127 40.7242C182.518 39.459 182.536 38.2533 182.18 37.11C181.825 35.9648 181.148 34.9306 180.15 34.0045C179.082 33.0139 177.9 32.3823 176.605 32.1106C175.311 31.8379 174.009 31.942 172.7 32.4229C171.391 32.9028 170.169 33.7556 169.032 34.9821C167.912 36.1898 167.157 37.4689 166.769 38.8185C166.381 40.1689 166.371 41.4788 166.74 42.75C167.109 44.0201 167.828 45.1505 168.895 46.1411C169.894 47.0672 170.982 47.6601 172.158 47.9199C173.333 48.1797 174.537 48.0667 175.77 47.5808L179.999 51.5024C177.648 52.8073 175.223 53.2713 172.725 52.8926C170.226 52.5128 167.944 51.3656 165.877 49.4489C164.126 47.8257 162.914 45.9616 162.244 43.8575C161.573 41.7534 161.489 39.6147 161.989 37.4402C162.49 35.2667 163.577 33.2786 165.249 31.474C166.922 29.6704 168.828 28.4329 170.966 27.7607Z" fill="#C3B48B"/>
<path d="M194.789 87.0704L191.524 77.6616L186.482 77.6675L184.756 72.6919L211.361 72.9755L213.276 78.4925L192.567 95.1992L190.828 90.1898L194.789 87.0704ZM198.134 84.4686L206.83 77.6209L195.761 77.6328L198.134 84.4686Z" fill="#C3B48B"/>
<path d="M4.5748 152.046L11.9648 143.635L11.1885 141.402L1.98486 144.602L0.337891 139.866L23.9557 131.65L27.0384 140.515C27.675 142.342 27.8942 144.01 27.6988 145.521C27.5025 147.03 26.97 148.296 26.0994 149.319C25.2289 150.342 24.1173 151.089 22.7639 151.561C21.2071 152.102 19.6464 152.139 18.0807 151.672C16.5151 151.205 15.1844 150.163 14.0917 148.546L6.48056 157.527L4.5748 152.046ZM14.7412 140.165L16.1185 144.124C16.5657 145.409 17.2092 146.26 18.049 146.677C18.8889 147.092 19.8616 147.108 20.9672 146.723C22.0499 146.347 22.7807 145.739 23.1585 144.899C23.5363 144.06 23.5026 142.997 23.0554 141.711L21.6781 137.752L14.7412 140.165Z" fill="#C3B48B"/>
<rect x="25.3174" y="182.709" width="25.0058" height="5.01508" transform="rotate(-41.3137 25.3174 182.709)" fill="#C3B48B"/>
<path d="M73.7335 198.926C73.6602 197.731 73.2863 196.672 72.6111 195.749C71.9368 194.826 70.9929 194.08 69.7822 193.512C68.4416 192.883 67.11 192.629 65.7882 192.748C64.4665 192.867 63.2498 193.352 62.1393 194.203C61.0278 195.054 60.1274 196.215 59.4383 197.684C58.7293 199.199 58.4071 200.658 58.4755 202.061C58.5429 203.464 58.9643 204.716 59.7407 205.819C60.5161 206.921 61.6078 207.801 63.0129 208.46C64.7431 209.271 66.3752 209.476 67.9082 209.073C69.4421 208.672 70.7668 207.73 71.8843 206.248L64.0986 202.599L65.7258 199.128L77.9873 204.876L76.1321 208.833C75.089 210.27 73.7553 211.425 72.1332 212.3C70.51 213.175 68.7242 213.65 66.7758 213.726C64.8274 213.802 62.882 213.383 60.9356 212.471C58.7502 211.448 57.007 210.031 55.7071 208.22C54.4052 206.411 53.6625 204.394 53.4781 202.171C53.2937 199.948 53.723 197.723 54.7671 195.495C55.8112 193.268 57.249 191.509 59.0814 190.217C60.9127 188.926 62.9395 188.202 65.1645 188.043C67.3876 187.886 69.5809 188.314 71.7435 189.327C74.2948 190.523 76.2204 192.185 77.5193 194.31C78.8172 196.436 79.2971 198.791 78.956 201.374L73.7335 198.926Z" fill="#C3B48B"/>
<path d="M118.148 217.474L108.2 217.973L106.793 222.815L101.534 223.08L109.257 197.618L115.089 197.324L125.327 221.883L120.033 222.15L118.148 217.474ZM116.586 213.534L112.446 203.269L109.359 213.898L116.586 213.534Z" fill="#C3B48B"/>
<path d="M157.277 182.452L159.244 185.989L153.419 189.228L163.604 207.546L159.22 209.982L149.037 191.665L143.212 194.902L141.245 191.365L157.277 182.452Z" fill="#C3B48B"/>
<path d="M182.151 155.423L185.409 157.826L181.453 163.189L198.318 175.63L195.342 179.667L178.475 167.225L174.52 172.587L171.262 170.184L182.151 155.423Z" fill="#C3B48B"/>
<rect x="193.594" y="136.593" width="5.01584" height="25.0061" transform="rotate(-75.1697 193.594 136.593)" fill="#C3B48B"/>
</svg>
