<svg width="289" height="71" viewBox="0 0 289 71" fill="none" xmlns="http://www.w3.org/2000/svg">
<path d="M44.7452 58.4618C45.4737 58.8308 46.0313 59.3618 46.4174 60.0554C46.8038 60.7489 46.9971 61.5746 46.9971 62.5312C46.9971 63.4794 46.8038 64.2983 46.4174 64.9876C46.0313 65.6766 45.4737 66.2035 44.7452 66.5679C44.0164 66.932 43.1429 67.1142 42.1244 67.1142H39.3984V57.9087H42.1244C43.1429 57.9087 44.0164 58.0932 44.7452 58.4618ZM45.0546 65.3429C45.7261 64.6714 46.0621 63.7342 46.0621 62.5312C46.0621 61.3198 45.7261 60.3739 45.0546 59.6932C44.3831 59.013 43.4063 58.6729 42.1244 58.6729H40.3201V66.3504H42.1244C43.4063 66.3504 44.3831 66.0145 45.0546 65.3429Z" fill="#333333"/>
<path d="M51.7254 58.6593V62.0966H55.2155V62.8604H51.7254V66.3502H55.6103V67.1139H50.8037V57.8955H55.6103V58.6593H51.7254Z" fill="#333333"/>
<path d="M60.726 66.8903C60.2651 66.6796 59.9026 66.3854 59.6395 66.0081C59.3761 65.6308 59.2356 65.209 59.2178 64.7436H60.1926C60.2363 65.1915 60.4337 65.5844 60.7852 65.9223C61.1359 66.2605 61.6499 66.4294 62.326 66.4294C62.9493 66.4294 63.4432 66.2693 63.8076 65.9489C64.1716 65.6285 64.3539 65.2223 64.3539 64.7303C64.3539 64.3355 64.2529 64.0174 64.0513 63.7756C63.849 63.5346 63.5988 63.3542 63.3005 63.2358C63.0017 63.1174 62.5895 62.9879 62.0626 62.8475C61.448 62.6804 60.9606 62.518 60.6007 62.36C60.2404 62.2021 59.9337 61.9561 59.6786 61.6225C59.4239 61.2888 59.2971 60.8371 59.2971 60.2661C59.2971 59.792 59.4197 59.3684 59.6657 58.9952C59.9113 58.622 60.2583 58.3301 60.7062 58.1194C61.1538 57.9088 61.6674 57.8032 62.2471 57.8032C63.0985 57.8032 63.7856 58.012 64.3079 58.4288C64.8303 58.846 65.1309 59.3835 65.2099 60.0422H64.2092C64.1478 59.6648 63.9412 59.3289 63.5901 59.0347C63.239 58.7409 62.7648 58.5936 62.1677 58.5936C61.6146 58.5936 61.1538 58.7409 60.7852 59.0347C60.4166 59.3289 60.2317 59.7305 60.2317 60.2396C60.2317 60.626 60.3327 60.9377 60.535 61.1745C60.7366 61.4118 60.989 61.5917 61.2923 61.7147C61.5949 61.8377 62.0056 61.9694 62.5234 62.1099C63.1205 62.2765 63.6034 62.4413 63.972 62.6038C64.341 62.7662 64.6522 63.0141 64.907 63.3478C65.1617 63.6815 65.2892 64.129 65.2892 64.6908C65.2892 65.1213 65.175 65.5294 64.9468 65.9158C64.7183 66.3023 64.3804 66.6136 63.9329 66.8508C63.4849 67.0877 62.9493 67.2061 62.326 67.2061C61.7202 67.2061 61.1868 67.101 60.726 66.8903Z" fill="#333333"/>
<path d="M74.2843 62.4651C73.7662 62.9484 72.9891 63.1898 71.9532 63.1898H70.0961V67.1142H69.1748V57.9087H71.9532C72.9804 57.9087 73.7552 58.1501 74.2779 58.633C74.7999 59.1158 75.061 59.757 75.061 60.5557C75.061 61.346 74.8021 61.9827 74.2843 62.4651ZM74.1131 60.5557C74.1131 59.9415 73.9419 59.4757 73.5995 59.1599C73.2571 58.8437 72.7082 58.6858 71.9532 58.6858H70.0961V62.3994H71.9532C73.393 62.3994 74.1131 61.7849 74.1131 60.5557Z" fill="#333333"/>
<path d="M79.6307 58.6593V62.0966H83.1208V62.8604H79.6307V66.3502H83.5156V67.1139H78.709V57.8955H83.5156V58.6593H79.6307Z" fill="#333333"/>
<path d="M92.3393 67.1142L90.0609 63.2688H88.3621V67.1142H87.4404V57.9087H90.2059C91.2331 57.9087 92.012 58.1547 92.5435 58.6463C93.0746 59.1379 93.3403 59.7832 93.3403 60.5819C93.3403 61.2493 93.1494 61.8179 92.7675 62.2875C92.3856 62.7571 91.8215 63.0623 91.0752 63.2027L93.4455 67.1142H92.3393ZM88.3621 62.5179H90.2192C90.9389 62.5179 91.4814 62.3425 91.8454 61.9914C92.2098 61.6402 92.392 61.1703 92.392 60.5819C92.392 59.9764 92.2163 59.5087 91.8651 59.1796C91.514 58.8501 90.9609 58.6857 90.2059 58.6857H88.3621V62.5179Z" fill="#333333"/>
<path d="M102.664 57.9087V58.6725H100.109V67.1142H99.1872V58.6725H96.6191V57.9087H102.664Z" fill="#333333"/>
<path d="M107.154 58.6593V62.0966H110.644V62.8604H107.154V66.3502H111.039V67.1139H106.232V57.8955H111.039V58.6593H107.154Z" fill="#333333"/>
<path d="M121.871 66.8903C121.411 66.6796 121.048 66.3854 120.785 66.0081C120.521 65.6308 120.381 65.209 120.363 64.7436H121.338C121.381 65.1915 121.579 65.5844 121.931 65.9223C122.281 66.2605 122.795 66.4294 123.471 66.4294C124.094 66.4294 124.588 66.2693 124.953 65.9489C125.317 65.6285 125.499 65.2223 125.499 64.7303C125.499 64.3355 125.398 64.0174 125.197 63.7756C124.994 63.5346 124.744 63.3542 124.446 63.2358C124.147 63.1174 123.735 62.9879 123.208 62.8475C122.593 62.6804 122.106 62.518 121.746 62.36C121.386 62.2021 121.079 61.9561 120.824 61.6225C120.569 61.2888 120.442 60.8371 120.442 60.2661C120.442 59.792 120.565 59.3684 120.811 58.9952C121.056 58.622 121.404 58.3301 121.851 58.1194C122.299 57.9088 122.813 57.8032 123.392 57.8032C124.244 57.8032 124.931 58.012 125.453 58.4288C125.976 58.846 126.276 59.3835 126.355 60.0422H125.354C125.293 59.6648 125.086 59.3289 124.736 59.0347C124.384 58.7409 123.91 58.5936 123.313 58.5936C122.76 58.5936 122.299 58.7409 121.931 59.0347C121.562 59.3289 121.377 59.7305 121.377 60.2396C121.377 60.626 121.478 60.9377 121.681 61.1745C121.882 61.4118 122.134 61.5917 122.437 61.7147C122.74 61.8377 123.151 61.9694 123.669 62.1099C124.266 62.2765 124.749 62.4413 125.117 62.6038C125.486 62.7662 125.797 63.0141 126.052 63.3478C126.307 63.6815 126.434 64.129 126.434 64.6908C126.434 65.1213 126.32 65.5294 126.092 65.9158C125.863 66.3023 125.526 66.6136 125.078 66.8508C124.63 67.0877 124.094 67.2061 123.471 67.2061C122.865 67.2061 122.332 67.101 121.871 66.8903Z" fill="#333333"/>
<path d="M131.201 57.9087V63.703C131.201 64.6164 131.419 65.2924 131.853 65.7313C132.288 66.1705 132.883 66.3899 133.638 66.3899C134.393 66.3899 134.983 66.1728 135.409 65.7377C135.835 65.3035 136.048 64.6251 136.048 63.703V57.9087H136.97V63.6901C136.97 64.8578 136.66 65.7358 136.041 66.3239C135.422 66.9122 134.617 67.2065 133.624 67.2065C132.632 67.2065 131.827 66.9122 131.208 66.3239C130.589 65.7358 130.279 64.8578 130.279 63.6901V57.9087H131.201Z" fill="#333333"/>
<path d="M146.465 64.9277H142.277L141.473 67.1139H140.499L143.857 58.0269H144.898L148.243 67.1139H147.268L146.465 64.9277ZM146.188 64.164L144.371 59.1862L142.553 64.164H146.188Z" fill="#333333"/>
<path d="M162.518 57.9087V58.6725H158.462V62.1098H161.886V62.8736H158.462V67.1142H157.54V57.9087H162.518Z" fill="#333333"/>
<path d="M167.957 66.6071C167.263 66.2074 166.717 65.6501 166.317 64.9346C165.917 64.219 165.718 63.4089 165.718 62.5047C165.718 61.6004 165.917 60.7907 166.317 60.0748C166.717 59.3596 167.263 58.802 167.957 58.4023C168.65 58.0029 169.423 57.8032 170.275 57.8032C171.135 57.8032 171.912 58.0029 172.605 58.4023C173.299 58.802 173.843 59.3596 174.238 60.0748C174.634 60.7907 174.831 61.6004 174.831 62.5047C174.831 63.4089 174.634 64.219 174.238 64.9346C173.843 65.6501 173.299 66.2074 172.605 66.6071C171.912 67.0065 171.135 67.2061 170.275 67.2061C169.423 67.2061 168.65 67.0065 167.957 66.6071ZM172.118 65.9287C172.662 65.6129 173.093 65.1585 173.409 64.5656C173.725 63.973 173.883 63.2863 173.883 62.5047C173.883 61.7234 173.725 61.0386 173.409 60.4502C173.093 59.8622 172.662 59.4097 172.118 59.0939C171.574 58.7777 170.959 58.6198 170.275 58.6198C169.59 58.6198 168.975 58.7777 168.431 59.0939C167.886 59.4097 167.456 59.8622 167.14 60.4502C166.824 61.0386 166.666 61.7234 166.666 62.5047C166.666 63.2863 166.824 63.973 167.14 64.5656C167.456 65.1585 167.886 65.6129 168.431 65.9287C168.975 66.2446 169.59 66.4029 170.275 66.4029C170.959 66.4029 171.574 66.2446 172.118 65.9287Z" fill="#333333"/>
<path d="M183.524 67.1142L181.245 63.2688H179.547V67.1142H178.625V57.9087H181.39C182.418 57.9087 183.197 58.1547 183.728 58.6463C184.259 59.1379 184.525 59.7832 184.525 60.5819C184.525 61.2493 184.334 61.8179 183.952 62.2875C183.57 62.7571 183.006 63.0623 182.26 63.2027L184.63 67.1142H183.524ZM179.547 62.5179H181.404C182.123 62.5179 182.666 62.3425 183.03 61.9914C183.394 61.6402 183.577 61.1703 183.577 60.5819C183.577 59.9764 183.401 59.5087 183.05 59.1796C182.699 58.8501 182.146 58.6857 181.39 58.6857H179.547V62.5179Z" fill="#333333"/>
<path d="M194.501 65.8695C195.041 65.5229 195.442 65.042 195.706 64.4274H196.786C196.478 65.2352 195.998 65.8783 195.344 66.3566C194.689 66.8353 193.91 67.1097 193.006 67.1799V67.9965C193.524 67.9786 193.934 68.0773 194.237 68.2926C194.54 68.5078 194.692 68.8172 194.692 69.2211C194.692 69.6163 194.551 69.9302 194.27 70.1629C193.989 70.3952 193.616 70.5118 193.151 70.5118H191.834V69.893H192.966C193.291 69.893 193.531 69.838 193.684 69.7282C193.838 69.6182 193.915 69.4492 193.915 69.2211C193.915 68.7997 193.598 68.5891 192.966 68.5891H192.361V67.1932C191.544 67.1667 190.807 66.9495 190.148 66.5411C189.49 66.133 188.974 65.5799 188.601 64.8818C188.227 64.1837 188.041 63.3914 188.041 62.5047C188.041 61.6004 188.239 60.7907 188.634 60.0752C189.029 59.3596 189.569 58.802 190.254 58.4023C190.939 58.0029 191.702 57.8032 192.545 57.8032C193.572 57.8032 194.452 58.0469 195.186 58.534C195.919 59.0214 196.452 59.7085 196.786 60.5953H195.706C195.442 59.9719 195.041 59.4845 194.501 59.1334C193.961 58.7822 193.309 58.6065 192.545 58.6065C191.869 58.6065 191.261 58.7648 190.721 59.0806C190.181 59.3968 189.758 59.8512 189.45 60.4438C189.143 61.0363 188.989 61.7234 188.989 62.5047C188.989 63.2863 189.143 63.9711 189.45 64.5591C189.758 65.1475 190.181 65.5996 190.721 65.9155C191.261 66.2317 191.869 66.3896 192.545 66.3896C193.309 66.3896 193.961 66.2165 194.501 65.8695Z" fill="#333333"/>
<path d="M206.056 64.9277H201.869L201.065 67.1139H200.091L203.449 58.0269H204.489L207.834 67.1139H206.86L206.056 64.9277ZM205.78 64.164L203.962 59.1862L202.145 64.164H205.78Z" fill="#333333"/>
<path d="M222.031 67.1142L219.752 63.2688H218.054V67.1142H217.132V57.9087H219.897C220.925 57.9087 221.703 58.1547 222.235 58.6463C222.766 59.1379 223.032 59.7832 223.032 60.5819C223.032 61.2493 222.841 61.8179 222.459 62.2875C222.077 62.7571 221.513 63.0623 220.767 63.2027L223.137 67.1142H222.031ZM218.054 62.5179H219.911C220.63 62.5179 221.173 62.3425 221.537 61.9914C221.901 61.6402 222.083 61.1703 222.083 60.5819C222.083 59.9764 221.908 59.5087 221.557 59.1796C221.205 58.8501 220.652 58.6857 219.897 58.6857H218.054V62.5179Z" fill="#333333"/>
<path d="M227.891 58.6593V62.0966H231.382V62.8604H227.891V66.3502H231.776V67.1139H226.97V57.8955H231.776V58.6593H227.891Z" fill="#333333"/>
<path d="M241.034 64.9277H236.846L236.043 67.1139H235.068L238.427 58.0269H239.467L242.812 67.1139H241.837L241.034 64.9277ZM240.758 64.164L238.94 59.1862L237.123 64.164H240.758Z" fill="#333333"/>
<path d="M247.316 66.3633H250.622V67.1142H246.395V57.9087H247.316V66.3633Z" fill="#333333"/>
<path d="M25.747 19.6475C35.8036 19.6475 40.9249 15.5037 40.9249 10.2427C40.9249 4.9817 35.2448 0.837891 23.6982 0.837891H0V1.48968C2.37445 2.14147 3.58503 2.97926 3.58503 5.8195V30.682C3.58503 33.3821 2.37445 34.2203 0 34.8721V35.4776H14.6658V34.8721C12.245 34.2203 11.0812 33.3821 11.0812 30.682V5.5868C11.0812 3.95714 11.919 3.91082 13.2229 3.91082H23.1865C29.425 3.91082 32.3582 6.51798 32.3582 10.2427C32.3582 13.9674 29.425 16.6676 23.1865 16.6676H13.3622V17.5058L34.0342 35.4776H45.3017V34.8721C43.9978 34.4534 41.9027 33.5685 39.1559 31.2404L25.747 19.6475Z" fill="#333333"/>
<path d="M52.0635 1.48968C54.4379 2.18816 55.6485 2.97964 55.6485 5.8195V31.2408C55.6485 33.5685 54.2052 34.267 52.0635 34.8725V35.4776H66.7293V34.8725C64.4482 34.267 63.1446 33.6152 63.1446 31.2408V5.8195C63.1446 3.07265 64.4482 2.14147 66.7293 1.48968V0.837891H52.0635V1.48968Z" fill="#333333"/>
<path d="M289 1.48968V0.837891H274.334V1.48968C276.708 2.18816 277.919 2.97964 277.919 5.8195V31.2408C277.919 33.5685 276.476 34.267 274.334 34.8725V35.4776H289V34.8725C286.719 34.267 285.415 33.6152 285.415 31.2408V5.8195C285.415 3.07265 286.719 2.14147 289 1.48968Z" fill="#333333"/>
<path d="M109.128 25.8862V31.1009C106.009 32.4507 101.958 33.2422 98.4195 33.2422C89.4801 33.2422 81.4256 28.54 81.4256 18.0643C81.4256 8.10074 90.458 3.02613 99.3974 3.02613C105.31 3.02613 113.318 4.51572 115.506 10.8013H116.158L116.764 2.37396H116.112C115.833 2.51366 115.646 2.60704 115.274 2.70005C111.782 1.58248 106.102 -0.000488281 99.3507 -0.000488281C81.0532 -0.000488281 72.9053 8.93892 72.9053 18.111C72.9053 29.4249 83.707 36.3155 98.3732 36.3155C104.053 36.3155 111.316 34.8723 116.624 32.125V25.8862C116.624 23.1393 118.021 22.2545 120.302 21.6027V20.9976H109.128V25.8862Z" fill="#333333"/>
<path d="M223.718 0.837891L226.511 8.48397L226.506 8.52003H226.524H226.901H227.112C228.183 6.33197 229.766 4.14352 233.956 4.14352H242.503V31.0544C242.503 33.4755 241.106 34.267 238.825 34.8721V35.4776H253.491V34.8721C251.302 34.267 249.813 33.4755 249.813 31.0544V4.14352H258.36C262.55 4.14352 264.133 6.33197 265.204 8.52003H265.487H265.809H265.81L268.616 0.837891H223.718Z" fill="#333333"/>
<path d="M173.308 0.837891L176.101 8.48397L176.096 8.52003H176.114H176.491H176.702C177.773 6.33197 179.356 4.14352 183.546 4.14352H192.093V31.0544C192.093 33.4755 190.696 34.267 188.415 34.8721V35.4776H203.081V34.8721C200.892 34.267 199.403 33.4755 199.403 31.0544V4.14352H207.95C212.14 4.14352 213.723 6.33197 214.794 8.52003H215.076H215.399H215.4L218.207 0.837891H173.308Z" fill="#333333"/>
<path d="M171.725 30.2629L153.287 0.837891H141.927V1.48968C142.858 1.62937 145 2.23485 145.745 3.25904L145.885 3.49174L130.148 28.4472C126.796 33.5685 123.956 34.4534 122.279 34.8725V35.4776H137.132V34.8725C135.502 34.4067 133.36 33.6152 133.36 32.0322C133.36 31.6595 133.5 31.2408 133.779 30.775L136.619 26.2125H136.635L138.953 22.4877H138.948L148.678 6.89075L157.299 20.9955H142.54V21.8337L145.793 24.7198L159.58 24.7202L163.158 30.496C163.484 30.9614 163.623 31.3805 163.623 31.7992C163.623 33.3821 161.435 34.4067 159.666 34.8725V35.4776H177.684V34.8725C176.101 34.4067 173.727 33.4755 171.725 30.2629Z" fill="#333333"/>
</svg>
