<svg width="1285" height="1178" viewBox="0 0 1285 1178" fill="none" xmlns="http://www.w3.org/2000/svg">
<path d="M1284.91 14.1244V0H1094.26L744.48 419.927V439.597H910.728C995.774 439.597 1044.46 480.589 1060.19 541.984C1063.64 556.099 1065.36 571.325 1065.36 587.459C1065.36 674.428 1015.73 737.524 910.177 737.524H743.93V757.194L854.191 889.598L1093.71 1177.12H1284.36V1163C1262.31 1153.16 1226.85 1132.45 1180.4 1078.13L954.444 808.31C960.975 807.895 967.361 807.335 973.65 806.687C1095.55 800.939 1170.96 742.876 1198.46 661.897C1206.7 639.339 1210.88 615.07 1210.88 589.652C1210.88 471.517 1130.8 377.573 973.602 370.395C967.515 369.757 961.332 369.206 955.004 368.791L1180.95 98.987C1227.4 44.576 1262.86 23.9594 1284.91 14.1244Z" fill="white"/>
<path d="M541.047 737.621V737.524H396.711H374.8C269.244 737.524 219.615 674.428 219.615 587.459C219.615 571.228 221.334 555.964 224.793 541.733L226.242 536.294C240 489.902 273.456 456.107 328.205 444.176C333.944 442.93 339.885 441.983 346.039 441.22C346.242 441.22 346.377 441.22 346.6 441.123C349.073 440.833 351.575 440.64 354.125 440.36C360.56 439.877 367.322 439.597 374.249 439.597H396.711H540.497V439.5V419.927L496.945 367.612L412.546 266.336L190.651 0H0V14.1244C22.1141 23.9594 57.5122 44.576 104.03 98.987L330.002 368.859C323.23 369.235 316.66 369.815 310.235 370.482C153.736 377.921 74.1002 471.758 74.1002 589.652C74.1002 615.331 78.3124 639.87 86.7465 662.68C114.329 743.06 189.337 800.717 310.371 806.639C316.94 807.306 323.645 807.876 330.553 808.262L104.581 1078.13C58.0629 1132.45 22.6745 1153.16 0.550679 1163V1177.12H191.269L466.87 846.259L497.563 809.412L541.047 757.194V737.621Z" fill="white"/>
<path d="M766.874 1162.03C764.536 1161.41 762.256 1160.78 760.034 1160.15C724.51 1145.18 706.464 1124.31 706.464 1065.05V809.412V710.512V662.371C708.937 622.084 730.597 607.525 766.874 597.159V586.135V575.895C730.597 566.272 708.937 555.935 706.464 521.387V367.622H706.212V99.7889C708.811 46.3537 729.119 28.3552 766.604 14.1244V11.1102L766.874 11.0232V0H766.604H518.711H518.44V14.1244C559.365 29.3985 579.063 48.9718 579.063 112.068V367.622V466.802V521.754C576.146 555.346 552.602 566.321 518.711 575.895V586.135V597.159C556.109 608.163 576.426 620.567 579.063 660.989V809.412H579.373V1076.48C577.257 1125.68 560.717 1145.08 528.932 1158.95C525.638 1160 522.256 1161.04 518.711 1162.03V1172.27H518.991V1177.12H767.154V1163L766.874 1162.88V1162.03Z" fill="white"/>
</svg>
