<svg xmlns="http://www.w3.org/2000/svg" xmlns:xlink="http://www.w3.org/1999/xlink" width="87.832" height="89.944" viewBox="0 0 87.832 89.944">
  <defs>
    <clipPath id="clip-path">
      <rect id="Rectangle_232" data-name="Rectangle 232" width="87.832" height="89.944" fill="none"/>
    </clipPath>
  </defs>
  <g id="Group_171" data-name="Group 171" clip-path="url(#clip-path)">
    <path id="Path_6712" data-name="Path 6712" d="M97.4,75.032c2.855,0,3.43-1.177,4.032-2.354h.376l-.551,4.308H91.341l-.551-4.308h.376c.6,1.178,1.177,2.354,4.032,2.354Z" transform="translate(-54.01 -43.235)" fill="#ebe7e5"/>
    <path id="Path_6713" data-name="Path 6713" d="M80.228,91.759c0-1.534-.654-1.987-1.936-2.339v-.352h12.8c6.237,0,9.3,2.238,9.3,5.08s-2.766,5.08-8.2,5.08l7.242,6.262a9.645,9.645,0,0,0,3.319,1.962v.327H96.675L85.509,98.071v-.453h5.306c3.37,0,4.954-1.459,4.954-3.471s-1.584-3.42-4.954-3.42H85.434c-.7,0-1.157.025-1.157.905v13.554c0,1.458.629,1.911,1.936,2.263v.327H78.292v-.327c1.283-.352,1.936-.8,1.936-2.263Z" transform="translate(-46.575 -52.986)" fill="#ebe7e5"/>
    <path id="Path_6714" data-name="Path 6714" d="M4.141,55.865l9.47,3.8-.762,1.9L6.69,59.092,11.832,64.1l-.577,1.438-7.183.081,6.16,2.47-.762,1.9L0,66.19l.865-2.158,8.25-.188L3.281,58.009Z" transform="translate(0 -33.234)" fill="#ebe7e5"/>
    <path id="Path_6715" data-name="Path 6715" d="M31.847,17.227l-1.522,3.368-.961-1.1,1.387-3.522Zm.643,4.446L34.172,23.6l2.587-2.26,1.067,1.222-2.587,2.26,1.779,2.036,2.918-2.549,1.1,1.255-4.459,3.9-6.722-7.7,4.459-3.895,1.1,1.255Z" transform="translate(-17.468 -9.502)" fill="#ebe7e5"/>
    <path id="Path_6716" data-name="Path 6716" d="M75.311.677l.466,1.585-2.608.767,2.412,8.2-1.963.578L71.2,3.607,68.6,4.373,68.13,2.788Z" transform="translate(-40.53 -0.403)" fill="#ebe7e5"/>
    <path id="Path_6717" data-name="Path 6717" d="M115.225,9.242a5.014,5.014,0,0,1-1.534-2.175,5.209,5.209,0,0,1-.206-2.779,5.183,5.183,0,0,1,1.172-2.513,5.02,5.02,0,0,1,2.2-1.492,5.5,5.5,0,0,1,5.184.947,4.984,4.984,0,0,1,1.52,2.173,5.231,5.231,0,0,1,.2,2.764A5.263,5.263,0,0,1,122.6,8.694a4.97,4.97,0,0,1-2.2,1.493,5.486,5.486,0,0,1-5.177-.946m4.467-.781a2.857,2.857,0,0,0,1.293-.975,3.909,3.909,0,0,0,.711-1.7,3.861,3.861,0,0,0-.066-1.832,2.819,2.819,0,0,0-.867-1.355,3.16,3.16,0,0,0-1.523-.694,3.2,3.2,0,0,0-1.677.109,2.8,2.8,0,0,0-1.3.959,3.863,3.863,0,0,0-.711,1.691,3.913,3.913,0,0,0,.065,1.84,2.843,2.843,0,0,0,.872,1.37,3.162,3.162,0,0,0,1.528.7,3.124,3.124,0,0,0,1.671-.119" transform="translate(-67.453 0)" fill="#ebe7e5"/>
    <path id="Path_6718" data-name="Path 6718" d="M165.158,21.107a4.494,4.494,0,0,1,.352,2.576,5.339,5.339,0,0,1-1.168,2.521,5.254,5.254,0,0,1-2.2,1.677,4.518,4.518,0,0,1-2.582.207,6.1,6.1,0,0,1-2.6-1.279l-2.783-2.231,6.381-7.962,2.783,2.231a6.1,6.1,0,0,1,1.814,2.26m-4.677,5.169a3.342,3.342,0,0,0,2.23-1.379,3.417,3.417,0,0,0,.874-2.493,3.313,3.313,0,0,0-1.377-2.256l-1.129-.905L156.865,24.5l1.129.905a3.362,3.362,0,0,0,2.488.87" transform="translate(-91.72 -9.885)" fill="#ebe7e5"/>
    <path id="Path_6719" data-name="Path 6719" d="M186.532,63.039a5.02,5.02,0,0,1,.969-2.48,5.508,5.508,0,0,1,4.948-2.111,5.022,5.022,0,0,1,2.46,1.017,5.5,5.5,0,0,1,2.068,4.847A4.983,4.983,0,0,1,196,66.778a5.557,5.557,0,0,1-4.948,2.111,4.969,4.969,0,0,1-2.457-1.01,5.487,5.487,0,0,1-2.065-4.84m3.115,3.3a2.855,2.855,0,0,0,1.526.541,3.914,3.914,0,0,0,1.809-.342,3.866,3.866,0,0,0,1.492-1.066,2.815,2.815,0,0,0,.652-1.47,3.162,3.162,0,0,0-.26-1.653,3.2,3.2,0,0,0-1.016-1.338,2.8,2.8,0,0,0-1.516-.553,3.866,3.866,0,0,0-1.8.339,3.906,3.906,0,0,0-1.5,1.069,2.839,2.839,0,0,0-.663,1.483,3.154,3.154,0,0,0,.256,1.663,3.122,3.122,0,0,0,1.02,1.329" transform="translate(-110.948 -34.746)" fill="#ebe7e5"/>
    <path id="Path_6720" data-name="Path 6720" d="M2,138.255l3.016-3.432-.317-.911L.945,135.217l-.672-1.933,9.637-3.352,1.258,3.617a4.469,4.469,0,0,1,.269,2.043,2.907,2.907,0,0,1-.652,1.55,3.073,3.073,0,0,1-1.361.915,3.037,3.037,0,0,1-1.911.045,3,3,0,0,1-1.627-1.275L2.78,140.491Zm4.148-4.848.562,1.616a1.711,1.711,0,0,0,.788,1.042,1.5,1.5,0,0,0,1.191.019,1.427,1.427,0,0,0,.894-.745,1.751,1.751,0,0,0-.043-1.3l-.561-1.616Z" transform="translate(-0.162 -77.295)" fill="#ebe7e5"/>
    <rect id="Rectangle_230" data-name="Rectangle 230" width="10.204" height="2.047" transform="translate(9.396 73.672) rotate(-41.314)" fill="#ebe7e5"/>
    <path id="Path_6721" data-name="Path 6721" d="M62.039,191.155a2.4,2.4,0,0,0-.458-1.3,2.94,2.94,0,0,0-1.155-.913,3.13,3.13,0,0,0-1.63-.312,2.826,2.826,0,0,0-1.489.593,4.126,4.126,0,0,0-1.495,3.206,2.84,2.84,0,0,0,.516,1.533,3.3,3.3,0,0,0,1.335,1.078,2.887,2.887,0,0,0,2,.25,2.965,2.965,0,0,0,1.622-1.153l-3.177-1.489.664-1.416,5,2.345-.757,1.615a4.793,4.793,0,0,1-1.632,1.415,4.949,4.949,0,0,1-2.186.582,5.094,5.094,0,0,1-2.383-.512,5.371,5.371,0,0,1-2.133-1.735,4.839,4.839,0,0,1-.91-2.468A5.677,5.677,0,0,1,56.06,187.6a4.824,4.824,0,0,1,2.482-.887,5.7,5.7,0,0,1,5.041,2.557,4.291,4.291,0,0,1,.586,2.882Z" transform="translate(-31.979 -111.067)" fill="#ebe7e5"/>
    <path id="Path_6722" data-name="Path 6722" d="M108.981,204.3l-4.059.2-.574,1.975-2.146.108,3.151-10.39,2.38-.12,4.178,10.021-2.16.109Zm-.637-1.607-1.689-4.189-1.26,4.337Z" transform="translate(-60.799 -116.647)" fill="#ebe7e5"/>
    <path id="Path_6723" data-name="Path 6723" d="M148.744,181.1l.8,1.444-2.377,1.321,4.156,7.475-1.789.994-4.156-7.474-2.376,1.321-.8-1.443Z" transform="translate(-84.595 -107.735)" fill="#ebe7e5"/>
    <path id="Path_6724" data-name="Path 6724" d="M176.879,153.877l1.329.98-1.614,2.188,6.882,5.076-1.215,1.647-6.882-5.077-1.614,2.188-1.33-.981Z" transform="translate(-102.581 -91.54)" fill="#ebe7e5"/>
    <rect id="Rectangle_231" data-name="Rectangle 231" width="2.046" height="10.204" transform="translate(77.445 54.589) rotate(-75.169)" fill="#ebe7e5"/>
  </g>
</svg>
