<svg xmlns="http://www.w3.org/2000/svg" xmlns:xlink="http://www.w3.org/1999/xlink" width="482.213" height="84.578" viewBox="0 0 482.213 84.578">
  <defs>
    <clipPath id="clip-path">
      <rect id="Rectangle_229" data-name="Rectangle 229" width="482.213" height="84.578" transform="translate(0 0)" fill="#c3b48b"/>
    </clipPath>
  </defs>
  <g id="Group_165" data-name="Group 165" transform="translate(0 0)">
    <g id="Group_164" data-name="Group 164" clip-path="url(#clip-path)">
      <path id="Path_6702" data-name="Path 6702" d="M92.324,1.015V0h-13.7L53.493,30.173v1.413H65.438c6.111,0,9.609,2.945,10.74,7.356a13.82,13.82,0,0,1,.371,3.268c0,6.249-3.567,10.783-11.151,10.783H53.454v1.413l7.922,9.513,17.21,20.659h13.7V83.563c-1.584-.706-4.132-2.2-7.471-6.1L68.578,58.079c.471-.03.929-.07,1.381-.117,8.76-.413,14.176-4.585,16.154-10.4A15.086,15.086,0,0,0,87,42.368c0-8.489-5.755-15.239-17.049-15.754-.437-.046-.882-.086-1.337-.116L84.854,7.113c3.337-3.91,5.886-5.392,7.47-6.1" fill="#c3b48b"/>
      <path id="Path_6703" data-name="Path 6703" d="M38.875,53v-.007H26.931c-7.586,0-11.152-4.535-11.152-10.782a13.823,13.823,0,0,1,.374-3.287l.1-.39a9.228,9.228,0,0,1,7.326-6.619c.411-.089.838-.158,1.282-.213a.075.075,0,0,0,.038-.007c.18-.021.358-.034.542-.054.462-.035.948-.055,1.445-.055H38.835V30.173l-3.128-3.758-6.065-7.278L13.7,0H0V1.016c1.59.7,4.132,2.187,7.476,6.1L23.712,26.5c-.486.027-.959.068-1.42.115C11.046,27.155,5.325,33.9,5.325,42.368a15.048,15.048,0,0,0,.909,5.248C8.215,53.391,13.6,57.534,22.3,57.958c.472.049.952.09,1.449.118L7.514,77.465c-3.341,3.9-5.884,5.392-7.474,6.1v1.016h13.7l19.8-23.773,2.2-2.648,3.124-3.752Z" fill="#c3b48b"/>
      <path id="Path_6704" data-name="Path 6704" d="M55.1,83.494q-.252-.068-.491-.135c-2.553-1.076-3.85-2.575-3.85-6.833V47.593c.178-2.895,1.735-3.941,4.341-4.686V41.379c-2.606-.691-4.163-1.434-4.341-3.917V26.414h-.018V7.17c.187-3.839,1.646-5.132,4.339-6.155V.8l.02,0V0H37.251V1.015c2.941,1.1,4.356,2.5,4.356,7.038V37.49c-.209,2.413-1.9,3.2-4.336,3.889v1.528c2.687.791,4.147,1.682,4.336,4.587V58.158h.023V77.347c-.153,3.535-1.341,4.929-3.624,5.926-.237.076-.48.149-.735.221v.736h.02v.349H55.122V83.563l-.02-.008Z" fill="#c3b48b"/>
      <path id="Path_6705" data-name="Path 6705" d="M162.15,43.924c12.227,0,18.453-5.038,18.453-11.434s-6.9-11.435-20.944-11.435H130.847v.793c2.887.792,4.359,1.811,4.359,5.264V57.34c0,3.283-1.472,4.3-4.359,5.094v.736h17.831v-.736c-2.944-.792-4.359-1.811-4.359-5.094V26.829c0-1.981,1.019-2.038,2.6-2.038h12.114c7.585,0,11.151,3.17,11.151,7.7S166.622,40.3,159.037,40.3H147.093V41.32l25.133,21.85h13.7v-.736a21.7,21.7,0,0,1-7.472-4.415Z" fill="#c3b48b"/>
      <path id="Path_6706" data-name="Path 6706" d="M194.145,21.848c2.887.849,4.359,1.811,4.359,5.264V58.019c0,2.831-1.755,3.68-4.359,4.416v.735h17.831v-.735c-2.774-.736-4.359-1.529-4.359-4.416V27.112c0-3.339,1.585-4.471,4.359-5.264v-.792H194.145Z" fill="#c3b48b"/>
      <path id="Path_6707" data-name="Path 6707" d="M482.213,21.848v-.792H464.382v.792c2.887.849,4.359,1.811,4.359,5.264V58.019c0,2.831-1.755,3.68-4.359,4.416v.735h17.831v-.735c-2.773-.736-4.359-1.529-4.359-4.416V27.112c0-3.339,1.586-4.471,4.359-5.264" fill="#c3b48b"/>
      <path id="Path_6708" data-name="Path 6708" d="M263.525,51.509v6.34a34.7,34.7,0,0,1-13.019,2.6c-10.869,0-20.661-5.717-20.661-18.454,0-12.113,10.981-18.283,21.85-18.283,7.188,0,16.925,1.811,19.585,9.453h.793l.735-10.246h-.792a4.239,4.239,0,0,1-1.019.4,63.332,63.332,0,0,0-19.359-3.283c-22.246,0-32.152,10.868-32.152,22.02,0,13.755,13.132,22.133,30.963,22.133,6.906,0,15.737-1.755,22.19-5.1V51.509c0-3.34,1.7-4.415,4.472-5.208v-.735H263.525Z" fill="#c3b48b"/>
      <path id="Path_6709" data-name="Path 6709" d="M402.843,21.055l3.4,9.3-.006.044h.736c1.3-2.66,3.227-5.321,8.321-5.321h10.392V57.792c0,2.944-1.7,3.906-4.472,4.642v.736h17.831v-.736c-2.66-.736-4.472-1.7-4.472-4.642V25.074h10.392c5.094,0,7.019,2.661,8.321,5.321h.737l3.412-9.34Z" fill="#c3b48b"/>
      <path id="Path_6710" data-name="Path 6710" d="M341.554,21.055l3.4,9.3-.006.044h.736c1.3-2.66,3.227-5.321,8.321-5.321h10.392V57.792c0,2.944-1.7,3.906-4.472,4.642v.736h17.831v-.736c-2.66-.736-4.472-1.7-4.472-4.642V25.074h10.392c5.094,0,7.019,2.661,8.321,5.321h.737l3.412-9.34Z" fill="#c3b48b"/>
      <path id="Path_6711" data-name="Path 6711" d="M339.629,56.83,317.213,21.055H303.4v.793c1.132.169,3.736.905,4.642,2.151l.169.283L289.08,54.623c-4.076,6.226-7.529,7.3-9.567,7.811v.736H297.57v-.736c-1.981-.566-4.585-1.528-4.585-3.453a3.041,3.041,0,0,1,.51-1.528l3.453-5.548h.018l2.819-4.528h-.007l11.831-18.963L322.09,45.563H304.146v1.019l3.955,3.509h16.763l4.349,7.022a2.718,2.718,0,0,1,.566,1.585c0,1.925-2.66,3.17-4.811,3.736v.736h21.906v-.736a11.99,11.99,0,0,1-7.245-5.6" fill="#c3b48b"/>
    </g>
  </g>
</svg>
