<svg xmlns="http://www.w3.org/2000/svg" xmlns:xlink="http://www.w3.org/1999/xlink" width="456.366" height="418.081" viewBox="0 0 456.366 418.081">
  <defs>
    <clipPath id="clip-path">
      <rect id="Rectangle_233" data-name="Rectangle 233" width="456.366" height="418.081" fill="#c3b48b"/>
    </clipPath>
  </defs>
  <g id="Group_185" data-name="Group 185" transform="translate(0 0)">
    <g id="Group_175" data-name="Group 175" transform="translate(0 0)" clip-path="url(#clip-path)">
      <path id="Path_6725" data-name="Path 6725" d="M210.358,5.018V0h-67.71L18.409,149.154v6.975H77.461c30.208,0,47.494,14.56,53.078,36.371a67.637,67.637,0,0,1,1.842,16.155c0,30.889-17.62,53.3-55.122,53.3H18.22v6.99l39.156,47.016,85.069,102.124h67.71v-5.018c-7.831-3.495-20.419-10.848-36.922-30.135L92.978,287.1c2.32-.16,4.6-.348,6.83-.58,43.289-2.045,70.074-22.667,79.848-51.424a74.47,74.47,0,0,0,4.409-25.669c0-41.955-28.439-75.324-84.272-77.862-2.161-.232-4.365-.435-6.613-.58l80.255-95.83c16.489-19.317,29.091-26.64,36.922-30.135" transform="translate(246.008 -0.001)" fill="#c3b48b"/>
      <path id="Path_6726" data-name="Path 6726" d="M192.167,261.98v-.029H133.115c-37.488,0-55.108-22.42-55.108-53.31a68.333,68.333,0,0,1,1.842-16.228l.508-1.943C85.243,174,97.12,161.988,116.568,157.754c2.045-.435,4.148-.783,6.337-1.044a.346.346,0,0,0,.2-.043c.885-.1,1.769-.16,2.668-.261,2.291-.174,4.7-.276,7.15-.276h59.038v-6.99L176.5,130.562,146.529,94.6,67.71,0H0V5.018c7.86,3.5,20.433,10.819,36.951,30.135l80.255,95.859c-2.407.131-4.728.334-7.019.566-55.586,2.654-83.866,35.98-83.866,77.847a74.381,74.381,0,0,0,4.5,25.944c9.789,28.54,36.429,49.017,79.428,51.12,2.32.247,4.713.45,7.164.58L37.154,382.913C20.622,402.215,8.049,409.568.2,413.063v5.018H67.942l97.875-117.51,10.906-13.1,15.445-18.548Z" transform="translate(0 -0.001)" fill="#c3b48b"/>
      <path id="Path_6727" data-name="Path 6727" d="M100.929,412.715c-.827-.218-1.639-.45-2.422-.667-12.617-5.322-19.041-12.733-19.041-33.775V235.253c.885-14.314,8.585-19.476,21.463-23.16v-7.556c-12.878-3.422-20.578-7.092-21.463-19.36V130.562h-.087V35.443c.928-18.983,8.136-25.379,21.449-30.425V3.945l.1-.029V0H12.7V5.018c14.531,5.424,21.521,12.37,21.521,34.776V185.308c-1.03,11.935-9.4,15.822-21.434,19.23v7.556c13.284,3.9,20.506,8.31,21.434,22.667v52.715h.116v94.858c-.754,17.475-6.627,24.364-17.91,29.294-1.175.363-2.378.74-3.64,1.088v3.64h.1v1.726H101.03v-5.018l-.1-.044Z" transform="translate(171.45 -0.001)" fill="#c3b48b"/>
    </g>
  </g>
</svg>
