<svg width="412" height="378" viewBox="0 0 412 378" fill="none" xmlns="http://www.w3.org/2000/svg">
<g opacity="0.797843">
<path d="M411.653 4.52512V0H350.573L238.513 134.534V140.836H291.774C319.021 140.836 334.618 153.969 339.66 173.638C340.765 178.16 341.316 183.038 341.316 188.207C341.316 216.07 325.416 236.285 291.598 236.285H238.337V242.586L273.662 285.005L350.397 377.12H411.477V372.595C404.414 369.444 393.051 362.808 378.17 345.407L305.78 258.963C307.872 258.83 309.918 258.65 311.933 258.443C350.988 256.601 375.146 237.999 383.958 212.056C386.598 204.828 387.935 197.053 387.935 188.91C387.935 151.062 362.279 120.965 311.918 118.665C309.968 118.461 307.987 118.285 305.96 118.152L378.346 31.713C393.228 14.2811 404.59 7.676 411.653 4.52512Z" fill="white"/>
<path d="M173.338 236.315V236.285H127.097H120.077C86.259 236.285 70.3592 216.07 70.3592 188.207C70.3592 183.007 70.9101 178.117 72.0182 173.558L72.4825 171.815C76.89 156.952 87.6085 146.126 105.149 142.303C106.987 141.904 108.891 141.6 110.862 141.356C110.927 141.356 110.971 141.356 111.042 141.325C111.834 141.232 112.636 141.17 113.453 141.08C115.514 140.926 117.681 140.836 119.9 140.836H127.097H173.162V140.805V134.534L159.209 117.774L132.17 85.3274L61.0799 0H0V4.52512C7.08482 7.676 18.4255 14.2811 33.3287 31.713L105.724 118.173C103.555 118.294 101.45 118.48 99.3918 118.693C49.2533 121.076 23.7399 151.14 23.7399 188.91C23.7399 197.137 25.0894 204.999 27.7914 212.306C36.6281 238.058 60.6589 256.53 99.4351 258.427C101.54 258.641 103.688 258.823 105.901 258.947L33.5051 345.407C18.6019 362.808 7.26434 369.444 0.176424 372.595V377.12H61.278L149.574 271.121L159.407 259.316L173.338 242.586V236.315Z" fill="white"/>
<path d="M245.688 372.286C244.939 372.088 244.208 371.887 243.496 371.682C232.115 366.888 226.334 360.202 226.334 341.217V259.316V227.63V212.207C227.126 199.3 234.065 194.636 245.688 191.315V187.783V184.502C234.065 181.42 227.126 178.108 226.334 167.04V117.777H226.253V31.9699C227.086 14.8506 233.592 9.08429 245.601 4.52512V3.55943L245.688 3.53158V0H245.601H166.182H166.096V4.52512C179.207 9.41857 185.518 15.6894 185.518 35.9039V117.777V149.552V167.157C184.583 177.919 177.04 181.435 166.182 184.502V187.783V191.315C178.164 194.84 184.673 198.815 185.518 211.765V259.316H185.617V344.878C184.939 360.639 179.64 366.854 169.457 371.298C168.401 371.636 167.318 371.967 166.182 372.286V375.567H166.272V377.12H245.777V372.595L245.688 372.558V372.286Z" fill="white"/>
</g>
</svg>
