<svg xmlns="http://www.w3.org/2000/svg" xmlns:xlink="http://www.w3.org/1999/xlink" width="24.563" height="22.502" viewBox="0 0 24.563 22.502">
  <defs>
    <clipPath id="clip-path">
      <rect id="Rectangle_233" data-name="Rectangle 233" width="24.563" height="22.502" fill="#fff"/>
    </clipPath>
  </defs>
  <g id="Group_175" data-name="Group 175" clip-path="url(#clip-path)">
    <path id="Path_6725" data-name="Path 6725" d="M28.561.27V0H24.917L18.23,8.028V8.4h3.178a2.634,2.634,0,0,1,2.857,1.958,3.64,3.64,0,0,1,.1.87A2.668,2.668,0,0,1,21.4,14.1H18.22v.376l2.107,2.53,4.579,5.5H28.55v-.27a5.7,5.7,0,0,1-1.987-1.622l-4.319-5.158c.125-.009.247-.019.368-.031,2.33-.11,3.772-1.22,4.3-2.768a4.008,4.008,0,0,0,.237-1.382c0-2.258-1.531-4.054-4.536-4.191-.116-.012-.235-.023-.356-.031l4.319-5.158A5.671,5.671,0,0,1,28.561.27" transform="translate(-3.999 0)" fill="#fff"/>
    <path id="Path_6726" data-name="Path 6726" d="M10.343,14.1v0H7.164A2.668,2.668,0,0,1,4.2,11.229a3.678,3.678,0,0,1,.1-.873l.027-.1A2.455,2.455,0,0,1,6.274,8.491c.11-.023.223-.042.341-.056a.019.019,0,0,0,.011,0l.144-.014c.123-.009.253-.015.385-.015h3.178V8.027l-.832-1L7.886,5.091,3.644,0H0V.27A5.671,5.671,0,0,1,1.989,1.892L6.308,7.051c-.13.007-.254.018-.378.03-2.992.143-4.514,1.936-4.514,4.19a4,4,0,0,0,.242,1.4c.527,1.536,1.961,2.638,4.275,2.751.125.013.254.024.386.031L2,20.609A5.7,5.7,0,0,1,.011,22.232v.27H3.657l5.268-6.325.587-.7.831-1Z" transform="translate(0 0)" fill="#fff"/>
    <path id="Path_6727" data-name="Path 6727" d="M17.447,22.213l-.13-.036c-.679-.286-1.025-.685-1.025-1.818v-7.7c.048-.77.462-1.048,1.155-1.247v-.407c-.693-.184-1.108-.382-1.155-1.042V7.027h0V1.908A1.545,1.545,0,0,1,17.441.27V.212l.005,0V0H12.7V.27c.782.292,1.158.666,1.158,1.872V9.974c-.055.642-.506.852-1.154,1.035v.407c.715.21,1.1.447,1.154,1.22v2.837h.006v5.105a1.5,1.5,0,0,1-.964,1.577c-.063.02-.128.04-.2.059v.2h.005V22.5h4.744v-.27l-.005,0Z" transform="translate(-2.787 0)" fill="#fff"/>
  </g>
</svg>
